<svg xmlns="http://www.w3.org/2000/svg" xmlns:xlink="http://www.w3.org/1999/xlink" width="100" zoomAndPan="magnify" viewBox="0 0 75 74.999997" height="100" preserveAspectRatio="xMidYMid meet" version="1.0"><defs><g/><clipPath id="a39369d09e"><path d="M 7.5 7.5 L 70.910156 7.5 L 70.910156 68.753906 L 7.5 68.753906 Z M 7.5 7.5 " clip-rule="nonzero"/></clipPath><clipPath id="4f7fee87f9"><path d="M 39.160156 7.5 C 21.675781 7.5 7.5 21.210938 7.5 38.128906 C 7.5 55.042969 21.675781 68.753906 39.160156 68.753906 C 56.648438 68.753906 70.820312 55.042969 70.820312 38.128906 C 70.820312 21.210938 56.648438 7.5 39.160156 7.5 Z M 39.160156 7.5 " clip-rule="nonzero"/></clipPath><clipPath id="e848ac4673"><path d="M 7.5 7.503906 L 70.5 7.503906 L 70.5 68.75 L 7.5 68.75 Z M 7.5 7.503906 " clip-rule="nonzero"/></clipPath><clipPath id="c2336bf799"><path d="M 39.15625 7.503906 C 21.675781 7.503906 7.5 21.214844 7.5 38.125 C 7.5 55.039062 21.675781 68.75 39.15625 68.75 C 56.640625 68.75 70.816406 55.039062 70.816406 38.125 C 70.816406 21.214844 56.640625 7.503906 39.15625 7.503906 Z M 39.15625 7.503906 " clip-rule="nonzero"/></clipPath><clipPath id="a20b2b8870"><path d="M 36.261719 9.132812 C 35.789062 9.179688 35.316406 9.234375 34.84375 9.296875 L 34.433594 6.324219 C 34.949219 6.253906 35.46875 6.195312 35.988281 6.148438 Z M 33.449219 9.523438 C 32.976562 9.609375 32.507812 9.707031 32.039062 9.816406 L 31.359375 6.898438 C 31.871094 6.777344 32.382812 6.667969 32.902344 6.574219 Z M 30.648438 10.179688 C 30.1875 10.308594 29.730469 10.449219 29.28125 10.601562 L 28.328125 7.753906 C 28.824219 7.589844 29.324219 7.433594 29.828125 7.292969 Z M 27.941406 11.082031 C 27.496094 11.253906 27.058594 11.4375 26.621094 11.628906 L 25.40625 8.886719 C 25.886719 8.675781 26.371094 8.472656 26.859375 8.285156 Z M 25.320312 12.242188 C 24.894531 12.457031 24.472656 12.679688 24.054688 12.910156 L 22.589844 10.292969 C 23.046875 10.039062 23.511719 9.792969 23.980469 9.558594 Z M 22.828125 13.636719 C 22.425781 13.890625 22.023438 14.152344 21.632812 14.421875 L 19.929688 11.953125 C 20.359375 11.65625 20.796875 11.367188 21.242188 11.089844 Z M 20.472656 15.265625 C 20.09375 15.554688 19.722656 15.851562 19.355469 16.160156 L 17.425781 13.863281 C 17.828125 13.527344 18.234375 13.199219 18.652344 12.878906 Z M 18.285156 17.105469 C 17.9375 17.429688 17.59375 17.757812 17.261719 18.097656 L 15.121094 16 C 15.488281 15.625 15.863281 15.257812 16.25 14.902344 Z M 16.285156 19.144531 C 15.96875 19.5 15.660156 19.863281 15.359375 20.234375 L 13.027344 18.351562 C 13.355469 17.941406 13.695312 17.542969 14.042969 17.148438 Z M 14.492188 21.367188 C 14.210938 21.75 13.9375 22.140625 13.679688 22.539062 L 11.171875 20.890625 C 11.460938 20.453125 11.757812 20.023438 12.066406 19.597656 Z M 12.925781 23.75 C 12.683594 24.160156 12.453125 24.578125 12.230469 24.996094 L 9.574219 23.605469 C 9.816406 23.140625 10.074219 22.679688 10.339844 22.226562 Z M 11.597656 26.28125 C 11.398438 26.710938 11.210938 27.144531 11.035156 27.585938 L 8.253906 26.464844 C 8.449219 25.980469 8.65625 25.5 8.875 25.023438 Z M 10.539062 28.917969 C 10.382812 29.367188 10.238281 29.820312 10.109375 30.277344 L 7.226562 29.441406 C 7.371094 28.9375 7.53125 28.4375 7.703125 27.9375 Z M 9.746094 31.664062 C 9.636719 32.125 9.539062 32.585938 9.457031 33.054688 L 6.503906 32.515625 C 6.597656 32 6.703125 31.488281 6.824219 30.976562 Z M 9.238281 34.449219 C 9.175781 34.921875 9.125 35.394531 9.089844 35.867188 L 6.097656 35.628906 C 6.140625 35.105469 6.195312 34.582031 6.261719 34.0625 Z M 9.011719 37.304688 C 9.003906 37.578125 9 37.851562 9 38.125 C 9 38.335938 9.003906 38.546875 9.007812 38.757812 L 6.007812 38.824219 C 6.003906 38.59375 6 38.359375 6 38.125 C 6 37.824219 6.003906 37.523438 6.011719 37.21875 Z M 9.074219 40.199219 C 9.109375 40.671875 9.15625 41.148438 9.214844 41.617188 L 6.238281 41.988281 C 6.171875 41.464844 6.121094 40.941406 6.082031 40.417969 Z M 9.421875 43.019531 C 9.503906 43.484375 9.597656 43.945312 9.703125 44.40625 L 6.777344 45.074219 C 6.660156 44.5625 6.558594 44.050781 6.46875 43.535156 Z M 10.054688 45.796875 C 10.183594 46.253906 10.328125 46.710938 10.476562 47.160156 L 7.636719 48.121094 C 7.46875 47.621094 7.3125 47.117188 7.167969 46.609375 Z M 10.964844 48.496094 C 11.140625 48.933594 11.324219 49.371094 11.519531 49.804688 L 8.789062 51.042969 C 8.574219 50.566406 8.367188 50.082031 8.175781 49.597656 Z M 12.144531 51.089844 C 12.363281 51.511719 12.589844 51.929688 12.828125 52.34375 L 10.234375 53.847656 C 9.972656 53.394531 9.71875 52.933594 9.476562 52.464844 Z M 13.574219 53.558594 C 13.835938 53.957031 14.101562 54.347656 14.382812 54.734375 L 11.945312 56.488281 C 11.640625 56.0625 11.34375 55.628906 11.058594 55.191406 Z M 15.242188 55.875 C 15.539062 56.246094 15.847656 56.609375 16.160156 56.96875 L 13.90625 58.949219 C 13.5625 58.554688 13.222656 58.152344 12.898438 57.742188 Z M 17.132812 58.019531 C 17.460938 58.363281 17.800781 58.695312 18.148438 59.023438 L 16.097656 61.210938 C 15.714844 60.851562 15.339844 60.484375 14.976562 60.105469 Z M 19.214844 59.972656 C 19.578125 60.28125 19.945312 60.582031 20.324219 60.875 L 18.488281 63.246094 C 18.074219 62.925781 17.667969 62.597656 17.269531 62.257812 Z M 21.480469 61.726562 C 21.871094 62 22.265625 62.261719 22.671875 62.519531 L 21.070312 65.054688 C 20.625 64.773438 20.1875 64.484375 19.757812 64.183594 Z M 23.890625 63.25 C 24.308594 63.484375 24.726562 63.710938 25.152344 63.925781 L 23.792969 66.601562 C 23.328125 66.367188 22.867188 66.117188 22.410156 65.859375 Z M 26.449219 64.546875 C 26.882812 64.742188 27.324219 64.929688 27.769531 65.105469 L 26.667969 67.894531 C 26.179688 67.703125 25.695312 67.5 25.21875 67.28125 Z M 29.101562 65.59375 C 29.554688 65.746094 30.007812 65.890625 30.464844 66.023438 L 29.628906 68.90625 C 29.128906 68.757812 28.628906 68.601562 28.132812 68.433594 Z M 31.855469 66.390625 C 32.324219 66.503906 32.792969 66.605469 33.265625 66.695312 L 32.703125 69.644531 C 32.183594 69.542969 31.667969 69.433594 31.15625 69.308594 Z M 34.660156 66.929688 C 35.128906 66.996094 35.601562 67.054688 36.074219 67.101562 L 35.785156 70.085938 C 35.265625 70.035156 34.746094 69.972656 34.230469 69.898438 Z M 37.511719 67.207031 C 37.996094 67.234375 38.480469 67.25 38.964844 67.25 L 38.949219 70.25 C 38.417969 70.246094 37.886719 70.230469 37.355469 70.203125 Z M 40.425781 67.226562 C 40.90625 67.207031 41.386719 67.175781 41.867188 67.136719 L 42.121094 70.125 C 41.597656 70.167969 41.070312 70.203125 40.542969 70.222656 Z M 43.285156 66.980469 C 43.753906 66.917969 44.222656 66.847656 44.6875 66.761719 L 45.214844 69.714844 C 44.707031 69.808594 44.195312 69.886719 43.679688 69.957031 Z M 46.089844 66.480469 C 46.558594 66.371094 47.027344 66.253906 47.488281 66.125 L 48.289062 69.019531 C 47.78125 69.160156 47.269531 69.289062 46.753906 69.402344 Z M 48.859375 65.710938 C 49.308594 65.566406 49.757812 65.40625 50.199219 65.238281 L 51.265625 68.042969 C 50.777344 68.226562 50.289062 68.402344 49.792969 68.5625 Z M 51.523438 64.699219 C 51.960938 64.507812 52.398438 64.308594 52.828125 64.09375 L 54.152344 66.785156 C 53.679688 67.019531 53.203125 67.242188 52.71875 67.449219 Z M 54.097656 63.433594 C 54.511719 63.203125 54.925781 62.964844 55.328125 62.714844 L 56.898438 65.269531 C 56.457031 65.542969 56.003906 65.808594 55.546875 66.058594 Z M 56.527344 61.9375 C 56.921875 61.667969 57.3125 61.390625 57.695312 61.101562 L 59.5 63.5 C 59.078125 63.816406 58.652344 64.121094 58.21875 64.417969 Z M 58.816406 60.214844 C 59.183594 59.910156 59.539062 59.597656 59.890625 59.277344 L 61.917969 61.492188 C 61.53125 61.84375 61.136719 62.1875 60.734375 62.523438 Z M 60.921875 58.289062 C 61.257812 57.949219 61.585938 57.601562 61.90625 57.25 L 64.132812 59.257812 C 63.78125 59.648438 63.421875 60.03125 63.050781 60.402344 Z M 62.835938 56.164062 C 63.140625 55.796875 63.433594 55.421875 63.714844 55.039062 L 66.125 56.820312 C 65.816406 57.242188 65.492188 57.65625 65.160156 58.0625 Z M 64.535156 53.871094 C 64.800781 53.472656 65.054688 53.074219 65.296875 52.664062 L 67.871094 54.203125 C 67.601562 54.652344 67.324219 55.097656 67.03125 55.535156 Z M 66 51.421875 C 66.222656 51 66.433594 50.574219 66.636719 50.144531 L 69.351562 51.417969 C 69.128906 51.894531 68.894531 52.367188 68.644531 52.832031 Z M 67.210938 48.839844 C 67.390625 48.402344 67.558594 47.960938 67.714844 47.511719 L 70.546875 48.511719 C 70.371094 49.003906 70.1875 49.492188 69.988281 49.976562 Z M 68.15625 46.15625 C 68.292969 45.699219 68.414062 45.238281 68.527344 44.773438 L 71.445312 45.480469 C 71.320312 45.992188 71.183594 46.503906 71.03125 47.011719 Z M 68.828125 43.382812 C 68.914062 42.917969 68.988281 42.453125 69.054688 41.988281 L 72.027344 42.394531 C 71.957031 42.914062 71.871094 43.425781 71.773438 43.9375 Z M 69.210938 40.574219 C 69.253906 40.097656 69.28125 39.617188 69.296875 39.136719 L 72.296875 39.242188 C 72.277344 39.773438 72.246094 40.304688 72.199219 40.832031 Z M 69.3125 37.6875 C 69.304688 37.203125 69.285156 36.722656 69.253906 36.242188 L 72.246094 36.046875 C 72.28125 36.574219 72.304688 37.105469 72.3125 37.640625 Z M 69.125 34.820312 C 69.070312 34.351562 69.003906 33.882812 68.925781 33.417969 L 71.882812 32.917969 C 71.96875 33.433594 72.042969 33.953125 72.105469 34.472656 Z M 68.65625 32.03125 C 68.550781 31.5625 68.4375 31.097656 68.308594 30.636719 L 71.203125 29.84375 C 71.34375 30.355469 71.46875 30.867188 71.585938 31.386719 Z M 67.898438 29.269531 C 67.75 28.820312 67.589844 28.375 67.417969 27.933594 L 70.214844 26.847656 C 70.40625 27.339844 70.582031 27.832031 70.746094 28.332031 Z M 66.871094 26.621094 C 66.679688 26.1875 66.472656 25.757812 66.257812 25.332031 L 68.933594 23.972656 C 69.171875 24.445312 69.398438 24.917969 69.613281 25.402344 Z M 65.578125 24.074219 C 65.34375 23.660156 65.097656 23.253906 64.839844 22.851562 L 67.371094 21.238281 C 67.652344 21.679688 67.925781 22.128906 68.183594 22.585938 Z M 64.042969 21.671875 C 63.769531 21.285156 63.484375 20.902344 63.1875 20.527344 L 65.546875 18.671875 C 65.871094 19.085938 66.1875 19.507812 66.488281 19.933594 Z M 62.277344 19.425781 C 61.964844 19.066406 61.644531 18.714844 61.316406 18.371094 L 63.484375 16.296875 C 63.847656 16.675781 64.199219 17.0625 64.542969 17.460938 Z M 60.300781 17.359375 C 59.957031 17.03125 59.605469 16.714844 59.246094 16.402344 L 61.203125 14.132812 C 61.601562 14.472656 61.988281 14.824219 62.367188 15.183594 Z M 58.140625 15.496094 C 57.765625 15.199219 57.382812 14.914062 56.992188 14.636719 L 58.726562 12.191406 C 59.15625 12.496094 59.578125 12.808594 59.992188 13.132812 Z M 55.804688 13.835938 C 55.402344 13.582031 54.996094 13.332031 54.585938 13.097656 L 56.085938 10.496094 C 56.535156 10.757812 56.980469 11.027344 57.421875 11.308594 Z M 53.332031 12.414062 C 52.90625 12.191406 52.476562 11.984375 52.039062 11.785156 L 53.289062 9.058594 C 53.765625 9.273438 54.238281 9.503906 54.707031 9.746094 Z M 50.71875 11.21875 C 50.28125 11.042969 49.835938 10.875 49.390625 10.722656 L 50.375 7.886719 C 50.867188 8.058594 51.355469 8.242188 51.835938 8.433594 Z M 48.03125 10.28125 C 47.570312 10.148438 47.109375 10.019531 46.644531 9.90625 L 47.363281 6.992188 C 47.875 7.121094 48.378906 7.257812 48.882812 7.40625 Z M 45.230469 9.59375 C 44.769531 9.5 44.304688 9.421875 43.839844 9.351562 L 44.285156 6.382812 C 44.796875 6.460938 45.304688 6.550781 45.8125 6.648438 Z M 42.425781 9.171875 C 41.949219 9.121094 41.472656 9.082031 40.992188 9.054688 L 41.167969 6.058594 C 41.691406 6.089844 42.214844 6.132812 42.738281 6.1875 Z M 39.550781 9.003906 L 39.148438 9.003906 C 38.667969 9.003906 38.1875 9.011719 37.703125 9.035156 L 37.5625 6.039062 C 38.09375 6.015625 38.628906 6.003906 39.167969 6.003906 L 39.570312 6.003906 Z M 39.550781 9.003906 " clip-rule="nonzero"/></clipPath><linearGradient x1="-0.000000326535" gradientTransform="matrix(0.957019, 0, 0, 0.957019, 7.500001, 7.502334)" y1="32" x2="65.829376" gradientUnits="userSpaceOnUse" y2="32" id="3f1aa172ed"><stop stop-opacity="1" stop-color="rgb(54.899597%, 32.199097%, 100%)" offset="0"/><stop stop-opacity="1" stop-color="rgb(55.075073%, 32.295227%, 99.728394%)" offset="0.00390625"/><stop stop-opacity="1" stop-color="rgb(55.250549%, 32.391357%, 99.456787%)" offset="0.0078125"/><stop stop-opacity="1" stop-color="rgb(55.4245%, 32.487488%, 99.185181%)" offset="0.0117188"/><stop stop-opacity="1" stop-color="rgb(55.599976%, 32.583618%, 98.913574%)" offset="0.015625"/><stop stop-opacity="1" stop-color="rgb(55.775452%, 32.679749%, 98.641968%)" offset="0.0195312"/><stop stop-opacity="1" stop-color="rgb(55.950928%, 32.775879%, 98.371887%)" offset="0.0234375"/><stop stop-opacity="1" stop-color="rgb(56.126404%, 32.870483%, 98.100281%)" offset="0.0273438"/><stop stop-opacity="1" stop-color="rgb(56.30188%, 32.966614%, 97.828674%)" offset="0.03125"/><stop stop-opacity="1" stop-color="rgb(56.477356%, 33.062744%, 97.557068%)" offset="0.0351562"/><stop stop-opacity="1" stop-color="rgb(56.652832%, 33.158875%, 97.286987%)" offset="0.0390625"/><stop stop-opacity="1" stop-color="rgb(56.826782%, 33.255005%, 97.015381%)" offset="0.0429688"/><stop stop-opacity="1" stop-color="rgb(57.002258%, 33.351135%, 96.743774%)" offset="0.046875"/><stop stop-opacity="1" stop-color="rgb(57.177734%, 33.447266%, 96.472168%)" offset="0.0507812"/><stop stop-opacity="1" stop-color="rgb(57.35321%, 33.543396%, 96.200562%)" offset="0.0546875"/><stop stop-opacity="1" stop-color="rgb(57.528687%, 33.639526%, 95.928955%)" offset="0.0585937"/><stop stop-opacity="1" stop-color="rgb(57.704163%, 33.735657%, 95.658875%)" offset="0.0625"/><stop stop-opacity="1" stop-color="rgb(57.879639%, 33.831787%, 95.387268%)" offset="0.0664062"/><stop stop-opacity="1" stop-color="rgb(58.055115%, 33.927917%, 95.115662%)" offset="0.0703125"/><stop stop-opacity="1" stop-color="rgb(58.229065%, 34.022522%, 94.844055%)" offset="0.0742187"/><stop stop-opacity="1" stop-color="rgb(58.404541%, 34.118652%, 94.573975%)" offset="0.078125"/><stop stop-opacity="1" stop-color="rgb(58.580017%, 34.214783%, 94.302368%)" offset="0.0820312"/><stop stop-opacity="1" stop-color="rgb(58.755493%, 34.310913%, 94.030762%)" offset="0.0859375"/><stop stop-opacity="1" stop-color="rgb(58.930969%, 34.407043%, 93.759155%)" offset="0.0898438"/><stop stop-opacity="1" stop-color="rgb(59.106445%, 34.503174%, 93.487549%)" offset="0.09375"/><stop stop-opacity="1" stop-color="rgb(59.281921%, 34.599304%, 93.215942%)" offset="0.0976562"/><stop stop-opacity="1" stop-color="rgb(59.457397%, 34.695435%, 92.945862%)" offset="0.101562"/><stop stop-opacity="1" stop-color="rgb(59.631348%, 34.791565%, 92.674255%)" offset="0.105469"/><stop stop-opacity="1" stop-color="rgb(59.806824%, 34.887695%, 92.402649%)" offset="0.109375"/><stop stop-opacity="1" stop-color="rgb(59.9823%, 34.983826%, 92.131042%)" offset="0.113281"/><stop stop-opacity="1" stop-color="rgb(60.157776%, 35.079956%, 91.860962%)" offset="0.117188"/><stop stop-opacity="1" stop-color="rgb(60.333252%, 35.174561%, 91.589355%)" offset="0.121094"/><stop stop-opacity="1" stop-color="rgb(60.508728%, 35.270691%, 91.317749%)" offset="0.125"/><stop stop-opacity="1" stop-color="rgb(60.684204%, 35.366821%, 91.046143%)" offset="0.128906"/><stop stop-opacity="1" stop-color="rgb(60.85968%, 35.462952%, 90.774536%)" offset="0.132812"/><stop stop-opacity="1" stop-color="rgb(61.03363%, 35.559082%, 90.50293%)" offset="0.136719"/><stop stop-opacity="1" stop-color="rgb(61.209106%, 35.655212%, 90.232849%)" offset="0.140625"/><stop stop-opacity="1" stop-color="rgb(61.384583%, 35.751343%, 89.961243%)" offset="0.144531"/><stop stop-opacity="1" stop-color="rgb(61.560059%, 35.847473%, 89.689636%)" offset="0.148437"/><stop stop-opacity="1" stop-color="rgb(61.735535%, 35.943604%, 89.41803%)" offset="0.152344"/><stop stop-opacity="1" stop-color="rgb(61.911011%, 36.039734%, 89.147949%)" offset="0.15625"/><stop stop-opacity="1" stop-color="rgb(62.086487%, 36.135864%, 88.876343%)" offset="0.160156"/><stop stop-opacity="1" stop-color="rgb(62.261963%, 36.231995%, 88.604736%)" offset="0.164062"/><stop stop-opacity="1" stop-color="rgb(62.435913%, 36.326599%, 88.33313%)" offset="0.167969"/><stop stop-opacity="1" stop-color="rgb(62.611389%, 36.422729%, 88.063049%)" offset="0.171875"/><stop stop-opacity="1" stop-color="rgb(62.786865%, 36.51886%, 87.791443%)" offset="0.175781"/><stop stop-opacity="1" stop-color="rgb(62.962341%, 36.61499%, 87.519836%)" offset="0.179687"/><stop stop-opacity="1" stop-color="rgb(63.137817%, 36.711121%, 87.24823%)" offset="0.183594"/><stop stop-opacity="1" stop-color="rgb(63.313293%, 36.807251%, 86.976624%)" offset="0.1875"/><stop stop-opacity="1" stop-color="rgb(63.48877%, 36.903381%, 86.705017%)" offset="0.191406"/><stop stop-opacity="1" stop-color="rgb(63.664246%, 36.999512%, 86.434937%)" offset="0.195312"/><stop stop-opacity="1" stop-color="rgb(63.838196%, 37.095642%, 86.16333%)" offset="0.199219"/><stop stop-opacity="1" stop-color="rgb(64.013672%, 37.191772%, 85.891724%)" offset="0.203125"/><stop stop-opacity="1" stop-color="rgb(64.189148%, 37.287903%, 85.620117%)" offset="0.207031"/><stop stop-opacity="1" stop-color="rgb(64.364624%, 37.384033%, 85.350037%)" offset="0.210937"/><stop stop-opacity="1" stop-color="rgb(64.5401%, 37.478638%, 85.07843%)" offset="0.214844"/><stop stop-opacity="1" stop-color="rgb(64.715576%, 37.574768%, 84.806824%)" offset="0.21875"/><stop stop-opacity="1" stop-color="rgb(64.891052%, 37.670898%, 84.535217%)" offset="0.222656"/><stop stop-opacity="1" stop-color="rgb(65.066528%, 37.767029%, 84.263611%)" offset="0.226562"/><stop stop-opacity="1" stop-color="rgb(65.242004%, 37.863159%, 83.992004%)" offset="0.230469"/><stop stop-opacity="1" stop-color="rgb(65.41748%, 37.95929%, 83.721924%)" offset="0.234375"/><stop stop-opacity="1" stop-color="rgb(65.591431%, 38.05542%, 83.450317%)" offset="0.238281"/><stop stop-opacity="1" stop-color="rgb(65.766907%, 38.15155%, 83.178711%)" offset="0.242187"/><stop stop-opacity="1" stop-color="rgb(65.942383%, 38.247681%, 82.907104%)" offset="0.246094"/><stop stop-opacity="1" stop-color="rgb(66.117859%, 38.343811%, 82.637024%)" offset="0.25"/><stop stop-opacity="1" stop-color="rgb(66.293335%, 38.439941%, 82.365417%)" offset="0.253906"/><stop stop-opacity="1" stop-color="rgb(66.468811%, 38.536072%, 82.093811%)" offset="0.257812"/><stop stop-opacity="1" stop-color="rgb(66.644287%, 38.630676%, 81.822205%)" offset="0.261719"/><stop stop-opacity="1" stop-color="rgb(66.819763%, 38.726807%, 81.550598%)" offset="0.265625"/><stop stop-opacity="1" stop-color="rgb(66.993713%, 38.822937%, 81.278992%)" offset="0.269531"/><stop stop-opacity="1" stop-color="rgb(67.169189%, 38.919067%, 81.008911%)" offset="0.273438"/><stop stop-opacity="1" stop-color="rgb(67.344666%, 39.015198%, 80.737305%)" offset="0.277344"/><stop stop-opacity="1" stop-color="rgb(67.520142%, 39.111328%, 80.465698%)" offset="0.28125"/><stop stop-opacity="1" stop-color="rgb(67.695618%, 39.207458%, 80.194092%)" offset="0.285156"/><stop stop-opacity="1" stop-color="rgb(67.871094%, 39.303589%, 79.924011%)" offset="0.289062"/><stop stop-opacity="1" stop-color="rgb(68.04657%, 39.399719%, 79.652405%)" offset="0.292969"/><stop stop-opacity="1" stop-color="rgb(68.222046%, 39.49585%, 79.380798%)" offset="0.296875"/><stop stop-opacity="1" stop-color="rgb(68.395996%, 39.59198%, 79.109192%)" offset="0.300781"/><stop stop-opacity="1" stop-color="rgb(68.571472%, 39.68811%, 78.837585%)" offset="0.304688"/><stop stop-opacity="1" stop-color="rgb(68.746948%, 39.782715%, 78.565979%)" offset="0.308594"/><stop stop-opacity="1" stop-color="rgb(68.922424%, 39.878845%, 78.295898%)" offset="0.3125"/><stop stop-opacity="1" stop-color="rgb(69.0979%, 39.974976%, 78.024292%)" offset="0.316406"/><stop stop-opacity="1" stop-color="rgb(69.273376%, 40.071106%, 77.752686%)" offset="0.320312"/><stop stop-opacity="1" stop-color="rgb(69.448853%, 40.167236%, 77.481079%)" offset="0.324219"/><stop stop-opacity="1" stop-color="rgb(69.624329%, 40.263367%, 77.210999%)" offset="0.328125"/><stop stop-opacity="1" stop-color="rgb(69.798279%, 40.359497%, 76.939392%)" offset="0.332031"/><stop stop-opacity="1" stop-color="rgb(69.973755%, 40.455627%, 76.667786%)" offset="0.335938"/><stop stop-opacity="1" stop-color="rgb(70.149231%, 40.551758%, 76.396179%)" offset="0.339844"/><stop stop-opacity="1" stop-color="rgb(70.324707%, 40.647888%, 76.126099%)" offset="0.34375"/><stop stop-opacity="1" stop-color="rgb(70.500183%, 40.744019%, 75.854492%)" offset="0.347656"/><stop stop-opacity="1" stop-color="rgb(70.675659%, 40.840149%, 75.582886%)" offset="0.351562"/><stop stop-opacity="1" stop-color="rgb(70.851135%, 40.934753%, 75.311279%)" offset="0.355469"/><stop stop-opacity="1" stop-color="rgb(71.026611%, 41.030884%, 75.039673%)" offset="0.359375"/><stop stop-opacity="1" stop-color="rgb(71.200562%, 41.127014%, 74.768066%)" offset="0.363281"/><stop stop-opacity="1" stop-color="rgb(71.376038%, 41.223145%, 74.497986%)" offset="0.367187"/><stop stop-opacity="1" stop-color="rgb(71.551514%, 41.319275%, 74.226379%)" offset="0.371094"/><stop stop-opacity="1" stop-color="rgb(71.72699%, 41.415405%, 73.954773%)" offset="0.375"/><stop stop-opacity="1" stop-color="rgb(71.902466%, 41.511536%, 73.683167%)" offset="0.378906"/><stop stop-opacity="1" stop-color="rgb(72.077942%, 41.607666%, 73.413086%)" offset="0.382813"/><stop stop-opacity="1" stop-color="rgb(72.253418%, 41.703796%, 73.141479%)" offset="0.386719"/><stop stop-opacity="1" stop-color="rgb(72.428894%, 41.799927%, 72.869873%)" offset="0.390625"/><stop stop-opacity="1" stop-color="rgb(72.602844%, 41.896057%, 72.598267%)" offset="0.394531"/><stop stop-opacity="1" stop-color="rgb(72.77832%, 41.992188%, 72.32666%)" offset="0.398438"/><stop stop-opacity="1" stop-color="rgb(72.953796%, 42.086792%, 72.055054%)" offset="0.402344"/><stop stop-opacity="1" stop-color="rgb(73.129272%, 42.182922%, 71.784973%)" offset="0.40625"/><stop stop-opacity="1" stop-color="rgb(73.304749%, 42.279053%, 71.513367%)" offset="0.410156"/><stop stop-opacity="1" stop-color="rgb(73.480225%, 42.375183%, 71.24176%)" offset="0.414062"/><stop stop-opacity="1" stop-color="rgb(73.655701%, 42.471313%, 70.970154%)" offset="0.417969"/><stop stop-opacity="1" stop-color="rgb(73.831177%, 42.567444%, 70.700073%)" offset="0.421875"/><stop stop-opacity="1" stop-color="rgb(74.005127%, 42.663574%, 70.428467%)" offset="0.425781"/><stop stop-opacity="1" stop-color="rgb(74.180603%, 42.759705%, 70.15686%)" offset="0.429688"/><stop stop-opacity="1" stop-color="rgb(74.356079%, 42.855835%, 69.885254%)" offset="0.433594"/><stop stop-opacity="1" stop-color="rgb(74.531555%, 42.951965%, 69.613647%)" offset="0.4375"/><stop stop-opacity="1" stop-color="rgb(74.707031%, 43.048096%, 69.342041%)" offset="0.441406"/><stop stop-opacity="1" stop-color="rgb(74.882507%, 43.144226%, 69.07196%)" offset="0.445312"/><stop stop-opacity="1" stop-color="rgb(75.057983%, 43.238831%, 68.800354%)" offset="0.449219"/><stop stop-opacity="1" stop-color="rgb(75.233459%, 43.334961%, 68.528748%)" offset="0.453125"/><stop stop-opacity="1" stop-color="rgb(75.40741%, 43.431091%, 68.257141%)" offset="0.457031"/><stop stop-opacity="1" stop-color="rgb(75.582886%, 43.527222%, 67.987061%)" offset="0.460938"/><stop stop-opacity="1" stop-color="rgb(75.758362%, 43.623352%, 67.715454%)" offset="0.464844"/><stop stop-opacity="1" stop-color="rgb(75.933838%, 43.719482%, 67.443848%)" offset="0.46875"/><stop stop-opacity="1" stop-color="rgb(76.109314%, 43.815613%, 67.172241%)" offset="0.472656"/><stop stop-opacity="1" stop-color="rgb(76.28479%, 43.911743%, 66.902161%)" offset="0.476562"/><stop stop-opacity="1" stop-color="rgb(76.460266%, 44.007874%, 66.630554%)" offset="0.480469"/><stop stop-opacity="1" stop-color="rgb(76.635742%, 44.104004%, 66.358948%)" offset="0.484375"/><stop stop-opacity="1" stop-color="rgb(76.811218%, 44.200134%, 66.087341%)" offset="0.488281"/><stop stop-opacity="1" stop-color="rgb(76.986694%, 44.296265%, 65.815735%)" offset="0.492188"/><stop stop-opacity="1" stop-color="rgb(77.160645%, 44.390869%, 65.544128%)" offset="0.496094"/><stop stop-opacity="1" stop-color="rgb(77.336121%, 44.487%, 65.274048%)" offset="0.5"/><stop stop-opacity="1" stop-color="rgb(77.511597%, 44.58313%, 65.002441%)" offset="0.503906"/><stop stop-opacity="1" stop-color="rgb(77.687073%, 44.67926%, 64.730835%)" offset="0.507812"/><stop stop-opacity="1" stop-color="rgb(77.862549%, 44.775391%, 64.459229%)" offset="0.511719"/><stop stop-opacity="1" stop-color="rgb(78.038025%, 44.871521%, 64.189148%)" offset="0.515625"/><stop stop-opacity="1" stop-color="rgb(78.213501%, 44.967651%, 63.917542%)" offset="0.519531"/><stop stop-opacity="1" stop-color="rgb(78.388977%, 45.063782%, 63.645935%)" offset="0.523438"/><stop stop-opacity="1" stop-color="rgb(78.562927%, 45.159912%, 63.374329%)" offset="0.527344"/><stop stop-opacity="1" stop-color="rgb(78.738403%, 45.256042%, 63.102722%)" offset="0.53125"/><stop stop-opacity="1" stop-color="rgb(78.913879%, 45.352173%, 62.831116%)" offset="0.535156"/><stop stop-opacity="1" stop-color="rgb(79.089355%, 45.448303%, 62.561035%)" offset="0.539062"/><stop stop-opacity="1" stop-color="rgb(79.264832%, 45.542908%, 62.289429%)" offset="0.542969"/><stop stop-opacity="1" stop-color="rgb(79.440308%, 45.639038%, 62.017822%)" offset="0.546875"/><stop stop-opacity="1" stop-color="rgb(79.615784%, 45.735168%, 61.746216%)" offset="0.550781"/><stop stop-opacity="1" stop-color="rgb(79.79126%, 45.831299%, 61.476135%)" offset="0.554687"/><stop stop-opacity="1" stop-color="rgb(79.96521%, 45.927429%, 61.204529%)" offset="0.558594"/><stop stop-opacity="1" stop-color="rgb(80.140686%, 46.02356%, 60.932922%)" offset="0.5625"/><stop stop-opacity="1" stop-color="rgb(80.316162%, 46.11969%, 60.661316%)" offset="0.566406"/><stop stop-opacity="1" stop-color="rgb(80.491638%, 46.21582%, 60.389709%)" offset="0.570312"/><stop stop-opacity="1" stop-color="rgb(80.667114%, 46.311951%, 60.118103%)" offset="0.574219"/><stop stop-opacity="1" stop-color="rgb(80.84259%, 46.408081%, 59.848022%)" offset="0.578125"/><stop stop-opacity="1" stop-color="rgb(81.018066%, 46.502686%, 59.576416%)" offset="0.582031"/><stop stop-opacity="1" stop-color="rgb(81.193542%, 46.598816%, 59.30481%)" offset="0.585938"/><stop stop-opacity="1" stop-color="rgb(81.367493%, 46.694946%, 59.033203%)" offset="0.589844"/><stop stop-opacity="1" stop-color="rgb(81.542969%, 46.791077%, 58.763123%)" offset="0.59375"/><stop stop-opacity="1" stop-color="rgb(81.718445%, 46.887207%, 58.491516%)" offset="0.597656"/><stop stop-opacity="1" stop-color="rgb(81.893921%, 46.983337%, 58.21991%)" offset="0.601562"/><stop stop-opacity="1" stop-color="rgb(82.069397%, 47.079468%, 57.948303%)" offset="0.605469"/><stop stop-opacity="1" stop-color="rgb(82.244873%, 47.175598%, 57.676697%)" offset="0.609375"/><stop stop-opacity="1" stop-color="rgb(82.420349%, 47.271729%, 57.40509%)" offset="0.613281"/><stop stop-opacity="1" stop-color="rgb(82.595825%, 47.367859%, 57.13501%)" offset="0.617188"/><stop stop-opacity="1" stop-color="rgb(82.769775%, 47.463989%, 56.863403%)" offset="0.621094"/><stop stop-opacity="1" stop-color="rgb(82.945251%, 47.56012%, 56.591797%)" offset="0.625"/><stop stop-opacity="1" stop-color="rgb(83.120728%, 47.654724%, 56.32019%)" offset="0.628906"/><stop stop-opacity="1" stop-color="rgb(83.296204%, 47.750854%, 56.05011%)" offset="0.632812"/><stop stop-opacity="1" stop-color="rgb(83.47168%, 47.846985%, 55.778503%)" offset="0.636719"/><stop stop-opacity="1" stop-color="rgb(83.647156%, 47.943115%, 55.506897%)" offset="0.640625"/><stop stop-opacity="1" stop-color="rgb(83.822632%, 48.039246%, 55.235291%)" offset="0.644531"/><stop stop-opacity="1" stop-color="rgb(83.998108%, 48.135376%, 54.96521%)" offset="0.648438"/><stop stop-opacity="1" stop-color="rgb(84.172058%, 48.231506%, 54.693604%)" offset="0.652344"/><stop stop-opacity="1" stop-color="rgb(84.347534%, 48.327637%, 54.421997%)" offset="0.65625"/><stop stop-opacity="1" stop-color="rgb(84.52301%, 48.423767%, 54.150391%)" offset="0.660156"/><stop stop-opacity="1" stop-color="rgb(84.698486%, 48.519897%, 53.878784%)" offset="0.664062"/><stop stop-opacity="1" stop-color="rgb(84.873962%, 48.616028%, 53.607178%)" offset="0.667969"/><stop stop-opacity="1" stop-color="rgb(85.049438%, 48.712158%, 53.337097%)" offset="0.671875"/><stop stop-opacity="1" stop-color="rgb(85.224915%, 48.806763%, 53.065491%)" offset="0.675781"/><stop stop-opacity="1" stop-color="rgb(85.400391%, 48.902893%, 52.793884%)" offset="0.679688"/><stop stop-opacity="1" stop-color="rgb(85.574341%, 48.999023%, 52.522278%)" offset="0.683594"/><stop stop-opacity="1" stop-color="rgb(85.749817%, 49.095154%, 52.252197%)" offset="0.6875"/><stop stop-opacity="1" stop-color="rgb(85.925293%, 49.191284%, 51.980591%)" offset="0.691406"/><stop stop-opacity="1" stop-color="rgb(86.100769%, 49.287415%, 51.708984%)" offset="0.695312"/><stop stop-opacity="1" stop-color="rgb(86.276245%, 49.383545%, 51.437378%)" offset="0.699219"/><stop stop-opacity="1" stop-color="rgb(86.451721%, 49.479675%, 51.165771%)" offset="0.703125"/><stop stop-opacity="1" stop-color="rgb(86.627197%, 49.575806%, 50.894165%)" offset="0.707031"/><stop stop-opacity="1" stop-color="rgb(86.802673%, 49.671936%, 50.624084%)" offset="0.710938"/><stop stop-opacity="1" stop-color="rgb(86.978149%, 49.768066%, 50.352478%)" offset="0.714844"/><stop stop-opacity="1" stop-color="rgb(87.153625%, 49.864197%, 50.080872%)" offset="0.71875"/><stop stop-opacity="1" stop-color="rgb(87.327576%, 49.958801%, 49.809265%)" offset="0.722656"/><stop stop-opacity="1" stop-color="rgb(87.503052%, 50.054932%, 49.539185%)" offset="0.726562"/><stop stop-opacity="1" stop-color="rgb(87.678528%, 50.151062%, 49.267578%)" offset="0.730469"/><stop stop-opacity="1" stop-color="rgb(87.854004%, 50.247192%, 48.995972%)" offset="0.734375"/><stop stop-opacity="1" stop-color="rgb(88.02948%, 50.343323%, 48.724365%)" offset="0.738281"/><stop stop-opacity="1" stop-color="rgb(88.204956%, 50.439453%, 48.452759%)" offset="0.742188"/><stop stop-opacity="1" stop-color="rgb(88.380432%, 50.535583%, 48.181152%)" offset="0.746094"/><stop stop-opacity="1" stop-color="rgb(88.555908%, 50.631714%, 47.911072%)" offset="0.75"/><stop stop-opacity="1" stop-color="rgb(88.729858%, 50.727844%, 47.639465%)" offset="0.753906"/><stop stop-opacity="1" stop-color="rgb(88.905334%, 50.823975%, 47.367859%)" offset="0.757812"/><stop stop-opacity="1" stop-color="rgb(89.080811%, 50.920105%, 47.096252%)" offset="0.761719"/><stop stop-opacity="1" stop-color="rgb(89.256287%, 51.016235%, 46.826172%)" offset="0.765625"/><stop stop-opacity="1" stop-color="rgb(89.431763%, 51.11084%, 46.554565%)" offset="0.769531"/><stop stop-opacity="1" stop-color="rgb(89.607239%, 51.20697%, 46.282959%)" offset="0.773438"/><stop stop-opacity="1" stop-color="rgb(89.782715%, 51.303101%, 46.011353%)" offset="0.777344"/><stop stop-opacity="1" stop-color="rgb(89.958191%, 51.399231%, 45.739746%)" offset="0.78125"/><stop stop-opacity="1" stop-color="rgb(90.132141%, 51.495361%, 45.46814%)" offset="0.785156"/><stop stop-opacity="1" stop-color="rgb(90.307617%, 51.591492%, 45.198059%)" offset="0.789062"/><stop stop-opacity="1" stop-color="rgb(90.483093%, 51.687622%, 44.926453%)" offset="0.792969"/><stop stop-opacity="1" stop-color="rgb(90.658569%, 51.783752%, 44.654846%)" offset="0.796875"/><stop stop-opacity="1" stop-color="rgb(90.834045%, 51.879883%, 44.38324%)" offset="0.800781"/><stop stop-opacity="1" stop-color="rgb(91.009521%, 51.976013%, 44.113159%)" offset="0.804688"/><stop stop-opacity="1" stop-color="rgb(91.184998%, 52.072144%, 43.841553%)" offset="0.808594"/><stop stop-opacity="1" stop-color="rgb(91.360474%, 52.168274%, 43.569946%)" offset="0.8125"/><stop stop-opacity="1" stop-color="rgb(91.534424%, 52.262878%, 43.29834%)" offset="0.816406"/><stop stop-opacity="1" stop-color="rgb(91.7099%, 52.359009%, 43.028259%)" offset="0.820312"/><stop stop-opacity="1" stop-color="rgb(91.885376%, 52.455139%, 42.756653%)" offset="0.824219"/><stop stop-opacity="1" stop-color="rgb(92.060852%, 52.55127%, 42.485046%)" offset="0.828125"/><stop stop-opacity="1" stop-color="rgb(92.236328%, 52.6474%, 42.21344%)" offset="0.832031"/><stop stop-opacity="1" stop-color="rgb(92.411804%, 52.74353%, 41.941833%)" offset="0.835938"/><stop stop-opacity="1" stop-color="rgb(92.58728%, 52.839661%, 41.670227%)" offset="0.839844"/><stop stop-opacity="1" stop-color="rgb(92.762756%, 52.935791%, 41.400146%)" offset="0.84375"/><stop stop-opacity="1" stop-color="rgb(92.936707%, 53.031921%, 41.12854%)" offset="0.847656"/><stop stop-opacity="1" stop-color="rgb(93.112183%, 53.128052%, 40.856934%)" offset="0.851562"/><stop stop-opacity="1" stop-color="rgb(93.287659%, 53.224182%, 40.585327%)" offset="0.855469"/><stop stop-opacity="1" stop-color="rgb(93.463135%, 53.320312%, 40.315247%)" offset="0.859375"/><stop stop-opacity="1" stop-color="rgb(93.638611%, 53.414917%, 40.04364%)" offset="0.863281"/><stop stop-opacity="1" stop-color="rgb(93.814087%, 53.511047%, 39.772034%)" offset="0.867188"/><stop stop-opacity="1" stop-color="rgb(93.989563%, 53.607178%, 39.500427%)" offset="0.871094"/><stop stop-opacity="1" stop-color="rgb(94.165039%, 53.703308%, 39.228821%)" offset="0.875"/><stop stop-opacity="1" stop-color="rgb(94.338989%, 53.799438%, 38.957214%)" offset="0.878906"/><stop stop-opacity="1" stop-color="rgb(94.514465%, 53.895569%, 38.687134%)" offset="0.882812"/><stop stop-opacity="1" stop-color="rgb(94.689941%, 53.991699%, 38.415527%)" offset="0.886719"/><stop stop-opacity="1" stop-color="rgb(94.865417%, 54.08783%, 38.143921%)" offset="0.890625"/><stop stop-opacity="1" stop-color="rgb(95.040894%, 54.18396%, 37.872314%)" offset="0.894531"/><stop stop-opacity="1" stop-color="rgb(95.21637%, 54.28009%, 37.602234%)" offset="0.898438"/><stop stop-opacity="1" stop-color="rgb(95.391846%, 54.376221%, 37.330627%)" offset="0.902344"/><stop stop-opacity="1" stop-color="rgb(95.567322%, 54.472351%, 37.059021%)" offset="0.90625"/><stop stop-opacity="1" stop-color="rgb(95.741272%, 54.566956%, 36.787415%)" offset="0.910156"/><stop stop-opacity="1" stop-color="rgb(95.916748%, 54.663086%, 36.515808%)" offset="0.914062"/><stop stop-opacity="1" stop-color="rgb(96.092224%, 54.759216%, 36.244202%)" offset="0.917969"/><stop stop-opacity="1" stop-color="rgb(96.2677%, 54.855347%, 35.974121%)" offset="0.921875"/><stop stop-opacity="1" stop-color="rgb(96.443176%, 54.951477%, 35.702515%)" offset="0.925781"/><stop stop-opacity="1" stop-color="rgb(96.618652%, 55.047607%, 35.430908%)" offset="0.929688"/><stop stop-opacity="1" stop-color="rgb(96.794128%, 55.143738%, 35.159302%)" offset="0.933594"/><stop stop-opacity="1" stop-color="rgb(96.969604%, 55.239868%, 34.889221%)" offset="0.9375"/><stop stop-opacity="1" stop-color="rgb(97.143555%, 55.335999%, 34.617615%)" offset="0.941406"/><stop stop-opacity="1" stop-color="rgb(97.319031%, 55.432129%, 34.346008%)" offset="0.945313"/><stop stop-opacity="1" stop-color="rgb(97.494507%, 55.528259%, 34.074402%)" offset="0.949219"/><stop stop-opacity="1" stop-color="rgb(97.669983%, 55.62439%, 33.804321%)" offset="0.953125"/><stop stop-opacity="1" stop-color="rgb(97.845459%, 55.718994%, 33.532715%)" offset="0.957031"/><stop stop-opacity="1" stop-color="rgb(98.020935%, 55.815125%, 33.261108%)" offset="0.960938"/><stop stop-opacity="1" stop-color="rgb(98.196411%, 55.911255%, 32.989502%)" offset="0.964844"/><stop stop-opacity="1" stop-color="rgb(98.371887%, 56.007385%, 32.717896%)" offset="0.96875"/><stop stop-opacity="1" stop-color="rgb(98.547363%, 56.103516%, 32.446289%)" offset="0.972656"/><stop stop-opacity="1" stop-color="rgb(98.722839%, 56.199646%, 32.176208%)" offset="0.976562"/><stop stop-opacity="1" stop-color="rgb(98.89679%, 56.295776%, 31.904602%)" offset="0.980469"/><stop stop-opacity="1" stop-color="rgb(99.072266%, 56.391907%, 31.632996%)" offset="0.984375"/><stop stop-opacity="1" stop-color="rgb(99.247742%, 56.488037%, 31.361389%)" offset="0.988281"/><stop stop-opacity="1" stop-color="rgb(99.423218%, 56.584167%, 31.091309%)" offset="0.992188"/><stop stop-opacity="1" stop-color="rgb(99.598694%, 56.680298%, 30.819702%)" offset="0.996094"/><stop stop-opacity="1" stop-color="rgb(99.77417%, 56.776428%, 30.548096%)" offset="1"/></linearGradient></defs><rect x="-7.5" width="90" fill="#ffffff" y="-7.5" height="89.999996" fill-opacity="1"/><rect x="-7.5" width="90" fill="#ffffff" y="-7.5" height="89.999996" fill-opacity="1"/><g clip-path="url(#a39369d09e)"><g clip-path="url(#4f7fee87f9)"><path fill="#ff914d" d="M 7.5 7.5 L 70.90625 7.5 L 70.90625 68.753906 L 7.5 68.753906 Z M 7.5 7.5 " fill-opacity="1" fill-rule="nonzero"/></g></g><g clip-path="url(#e848ac4673)"><g clip-path="url(#c2336bf799)"><g clip-path="url(#a20b2b8870)"><path fill="url(#3f1aa172ed)" d="M 7.5 7.503906 L 7.5 68.75 L 70.5 68.75 L 70.5 7.503906 Z M 7.5 7.503906 " fill-rule="nonzero"/></g></g></g><g fill="#000000" fill-opacity="1"><g transform="translate(34.166337, 57.690339)"><g><path d="M 18.921875 -25.890625 L 27.515625 -25.890625 L 11.90625 -12.9375 L 27.515625 0 L 18.921875 0 L 8.078125 -9.140625 L 8.078125 0 L 2.203125 0 L 2.203125 -25.890625 L 8.078125 -25.890625 L 8.078125 -16.71875 Z M 18.921875 -25.890625 "/></g></g></g><g fill="#000000" fill-opacity="1"><g transform="translate(12.912028, 47.618362)"><g><path d="M 26.59375 -27.34375 L 13.0625 0 L 8.625 0 L 1.8125 -27.34375 L 5.765625 -27.34375 C 6.191406 -27.34375 6.53125 -27.238281 6.78125 -27.03125 C 7.03125 -26.820312 7.1875 -26.554688 7.25 -26.234375 L 10.90625 -9.1875 C 11.050781 -8.65625 11.179688 -8.078125 11.296875 -7.453125 C 11.410156 -6.835938 11.507812 -6.1875 11.59375 -5.5 C 11.8125 -6.1875 12.046875 -6.835938 12.296875 -7.453125 C 12.546875 -8.078125 12.800781 -8.65625 13.0625 -9.1875 L 20.859375 -26.234375 C 20.984375 -26.515625 21.207031 -26.769531 21.53125 -27 C 21.851562 -27.226562 22.21875 -27.34375 22.625 -27.34375 Z M 26.59375 -27.34375 "/></g></g></g><g fill="#000000" fill-opacity="1"><g transform="translate(37.459769, 47.618362)"><g/></g></g></svg>